Coordinates
version=1
nRows=19
nColumns=36
inDegrees=yes

Units are S.I. units (second, meters, Newtons, ...)
If the header above contains a line with 'inDegrees', this indicates whether rotational values are in degrees (yes) or radians (no).

endheader
time	pelvis_tilt	pelvis_list	pelvis_rotation	pelvis_tx	pelvis_ty	pelvis_tz	hip_flexion_r	hip_adduction_r	hip_rotation_r	knee_angle_r	knee_angle_r_beta	ankle_angle_r	subtalar_angle_r	mtp_angle_r	hip_flexion_l	hip_adduction_l	hip_rotation_l	knee_angle_l	knee_angle_l_beta	ankle_angle_l	subtalar_angle_l	mtp_angle_l	lumbar_extension	lumbar_bending	lumbar_rotation	arm_flex_r	arm_add_r	arm_rot_r	elbow_flex_r	pro_sup_r	arm_flex_l	arm_add_l	arm_rot_l	elbow_flex_l	pro_sup_l
      0.32400000	     -2.80707170	     -6.94327570	      2.89368284	     -2.89559647	      1.00895060	      0.15087695	     45.53214931	      3.85711917	    -16.70331081	     27.62349309	      0.48212091	     -2.26987852	      0.29109556	    -33.88797888	    -19.61581206	     -5.78561454	     -3.57255928	     98.18868184	      1.71371579	    -19.77254142	     -6.01675150	    -10.98550316	    -18.02760558	     14.57293654	     -7.41900373	    -49.71021821	    -22.78554586	    -14.12163899	     72.84444262	     90.00021046	     12.37598441	    -11.37656231	      9.39804433	    107.71858320	     90.00021046
      0.32800000	     -2.21433382	     -7.09651611	      2.87193276	     -2.85911898	      1.00945823	      0.15148851	     43.67212008	      4.12399062	    -18.42720115	     27.59482879	      0.48162062	     -2.50061287	     -0.99353353	    -33.57278423	    -18.26366219	     -6.18462250	     -3.79506699	    102.48474888	      1.78869630	    -19.40294140	     -7.81320409	    -10.86640760	    -19.15633787	     14.64004085	     -6.94077026	    -46.96547971	    -23.82912599	    -12.22655790	     73.71827366	     90.00021046	     10.20793957	    -11.04854728	      8.62521021	    103.27774237	     90.00021046
      0.33200000	     -1.58955922	     -7.29064144	      2.90862831	     -2.82293973	      1.00979636	      0.15209288	     41.81218356	      4.37943866	    -20.07689209	     27.85550982	      0.48617036	     -2.71251673	     -2.03857394	    -32.53500759	    -16.82173466	     -6.64440002	     -3.84699845	    106.71426882	      1.86251535	    -18.61352129	     -9.18992202	     -9.45190447	    -20.33363815	     14.74081170	     -6.41719238	    -44.07232599	    -24.82235939	    -10.30414708	     74.51347396	     90.00021046	      8.26857130	    -10.64057316	      7.91860217	     98.62778081	     90.00021046
      0.33600000	     -1.10446346	     -7.48817149	      2.87348544	     -2.78669543	      1.00967695	      0.15280836	     40.15253567	      4.64512353	    -21.56843515	     28.51596468	      0.49769747	     -2.93393141	     -2.85285712	    -32.27457800	    -15.16738664	     -7.06496767	     -3.87869835	    110.81764425	      1.93413276	    -17.85346145	    -10.68912111	     -9.19436616	    -21.33372787	     14.83023558	     -5.77051601	    -41.12920797	    -25.77105803	     -8.44069990	     75.22707254	     90.00021046	      6.60898648	    -10.25206999	      7.24768229	     93.64779821	     90.00021046
      0.34000000	     -0.71378869	     -7.62343057	      2.79082482	     -2.75041461	      1.00921057	      0.15347816	     38.62376856	      4.83547987	    -22.74205153	     29.47574485	      0.51444880	     -3.03932137	     -3.18766904	    -31.26915438	    -13.30586240	     -7.37757021	     -3.80160093	    114.79273482	      2.00351118	    -16.74332015	    -11.86978807	     -6.64700822	    -22.22394678	     14.85143596	     -5.06449032	    -38.10048090	    -26.68545665	     -6.62012389	     75.86710054	     90.00021046	      5.13855200	     -9.83278911	      6.49705033	     88.44894243	     90.00021046
      0.34400000	     -0.25702931	     -7.93187814	      2.70436053	     -2.71396261	      1.00870208	      0.15439927	     36.96068227	      5.25572547	    -23.64654583	     30.39181003	      0.53043715	     -3.41464039	     -3.09271542	    -31.23944287	    -11.44071363	     -7.86356324	     -3.64107635	    118.58094987	      2.06962801	    -15.65160184	    -12.77216892	     -5.48506533	    -23.14643885	     15.02491594	     -4.26551305	    -34.93005377	    -27.59441392	     -4.74704765	     76.38463248	     90.00021046	      3.89818272	     -9.38090458	      5.83570910	     82.93649181	     90.00021046
      0.34800000	      0.19718564	     -8.18492731	      2.63422414	     -2.67745892	      1.00799652	      0.15517605	     35.24034053	      5.62305875	    -24.22515792	     31.33284347	      0.54686128	     -3.80563004	     -2.32520730	    -31.57740719	     -9.45222608	     -8.32144990	     -3.41397927	    122.16115153	      2.13211431	    -14.63570148	    -13.57151506	     -3.92927728	    -24.01953042	     15.13952827	     -3.41885435	    -31.67233471	    -28.46650493	     -2.89989295	     76.82826579	     90.00021046	      2.87562299	     -8.91650860	      5.16239761	     77.16471135	     90.00021046
      0.35200000	      0.25816215	     -8.67590115	      2.38803186	     -2.64135962	      1.00632683	      0.15718398	     33.91714790	      6.56055899	    -24.05889157	     32.00506258	      0.55859372	     -4.14902739	     -2.42778919	    -31.24465168	     -6.99346789	     -9.03010197	     -3.03309587	    125.69090831	      2.19372019	    -13.30348325	    -13.77514295	     -2.94539554	    -24.53772157	     15.32443507	     -2.35019566	    -28.24166994	    -29.23376266	     -0.96149060	     77.17499237	     90.00021046	      2.01996798	     -8.74097514	      4.75359723	     71.36377471	     90.00021046
      0.35600000	      0.01087663	     -9.12518311	      1.82339466	     -2.60585928	      1.00421513	      0.15993010	     32.92423209	      7.84113095	    -22.92996543	     32.59645092	      0.56891539	     -4.45184682	     -3.33793898	    -31.36636764	     -4.01488647	     -9.85203275	     -2.86710241	    129.10176412	      2.25325085	    -12.32797096	    -13.84586041	     -3.03810754	    -24.84040112	     15.32355597	     -1.04513965	    -24.55475836	    -29.89014197	      0.97977390	     77.42715625	     90.00021046	      1.33306509	     -8.62823827	      4.35562020	     65.46211353	     90.00021046
      0.36000000	     -0.24829725	     -9.37984914	      1.17060161	     -2.57013462	      1.00180227	      0.16310556	     31.89484988	      9.10563595	    -21.39767705	     33.55411812	      0.58562984	     -2.02978706	     -4.09876322	    -23.51013105	     -0.94461153	    -10.51297617	     -2.63084076	    132.21527275	      2.30759183	    -11.47490874	    -13.69212811	     -3.06937308	    -25.08415531	     15.03314599	      0.12379561	    -20.57444879	    -30.54366343	      3.24908549	     77.52088330	     90.00021046	      0.58449348	     -8.80386973	      4.20394029	     59.63047709	     90.00021046
      0.36400000	     -0.63565583	     -9.45296664	      0.04785625	     -2.53468248	      0.99930926	      0.16611750	     30.90662021	     10.25517598	    -20.10228688	     35.10922997	      0.61277166	      2.18026676	     -4.64204203	    -14.29817474	      2.36512330	    -10.89461832	     -2.80669523	    134.99092691	      2.35603613	    -11.01924960	    -13.56921055	     -2.98376967	    -25.30135467	     14.47360885	      1.68538983	    -16.50055701	    -31.28717991	      5.45347079	     77.69947773	     90.00021046	     -0.15661046	     -8.73867965	      3.74600264	     54.10458923	     90.00021046
      0.36800000	     -1.08530209	     -9.39856478	     -0.88714083	     -2.49934793	      0.99629110	      0.16848340	     29.89887899	     11.15709119	    -19.21985207	     37.02239167	      0.64616263	      6.96730189	     -5.85386628	     -5.44723333	      5.87367952	    -11.13373136	     -2.77884853	    137.57070821	      2.40106181	    -10.34022995	    -13.39610955	     -2.48154679	    -25.35003507	     13.87323977	      3.03071709	    -12.34307829	    -31.95653220	      7.52477816	     77.90932599	     90.00021046	     -0.86783120	     -8.84963144	      3.71306252	     48.75120507	     90.00021046
      0.37200000	     -1.31008109	     -9.45348465	     -1.84783414	     -2.46378684	      0.99360903	      0.17112159	     28.48160929	     12.27606066	    -17.99792718	     38.66450948	      0.67482299	     10.85585313	     -7.78182101	     -5.07343394	      9.20469286	    -11.61053028	     -2.68839972	    139.79788720	      2.43993342	     -9.82317217	    -13.10888899	     -2.62201725	    -25.61063045	     13.28838547	      4.44268551	     -7.99360469	    -32.49397827	      9.60250930	     78.05769124	     90.00021046	     -1.71968168	     -9.15878046	      3.97826921	     43.75763752	     90.00021046
      0.37600000	     -1.40540936	     -9.65145904	     -2.69815161	     -2.42816985	      0.99112751	      0.17370505	     26.85203205	     13.48100249	    -16.67722046	     39.94952847	      0.69725081	     14.39910752	     -8.88421106	     -0.74308587	     12.43311268	    -12.27767325	     -2.34029842	    141.69940986	      2.47312125	     -9.25243742	    -12.64953509	     -3.37691420	    -26.00052384	     12.80799883	      5.81131400	     -3.49631132	    -32.96193950	     11.63349387	     78.23183189	     90.00021046	     -2.83978940	     -9.47725360	      3.71173447	     39.50992681	     90.00021046
      0.38000000	     -0.77709883	     -9.53398261	     -3.79348427	     -2.39168914	      0.99013833	      0.17572377	     24.36422816	     14.03038428	    -15.42794047	     41.43453998	      0.72316915	     17.04465816	    -10.07557419	     -1.04049517	     14.99884855	    -12.83138690	     -2.83533619	    142.94986958	      2.49494589	     -9.60250960	    -13.13654103	     -2.21927386	    -27.04158758	     11.89864159	      7.32409551	      1.05264997	    -33.46540715	     13.73709877	     78.46173278	     90.00021046	     -4.20342564	     -9.70372647	      3.23843673	     35.76073492	     90.00021046
      0.38400000	     -0.25232579	     -9.56130922	     -4.72764993	     -2.35495905	      0.98893485	      0.17810242	     21.99969984	     14.54116283	    -14.12676758	     42.95717469	      0.74974414	     19.30073869	    -10.41464994	     -1.26820030	     17.53173385	    -13.32816541	     -2.93995670	    143.93423468	      2.51212630	     -9.22066948	    -12.93269432	     -2.49227260	    -27.84804777	     11.11833583	      8.71821087	      5.53706267	    -33.75596382	     15.60465185	     78.71672869	     90.00021046	     -5.93520479	    -10.25705832	      3.36037066	     32.92859615	     90.00021046
      0.38800000	      0.06569690	     -9.47212185	     -5.44554874	     -2.31867529	      0.98747258	      0.18068928	     19.84173506	     14.83034953	    -12.73924706	     44.33930523	      0.77386686	     21.03516130	    -10.61660161	     -2.87701076	     20.53932733	    -13.68499814	     -2.70665945	    144.73387166	      2.52608260	     -8.83356355	    -12.85571921	     -2.74487887	    -28.37102626	     10.26607287	      9.71289883	     10.13652109	    -33.73597585	     17.29034217	     78.96647799	     90.00021046	     -8.04080695	    -10.78796428	      2.29177172	     31.22441511	     90.00021046
      0.39200000	      0.58642067	     -8.95861068	     -6.79612642	     -2.28107894	      0.98680916	      0.18323392	     17.12751175	     14.66855249	    -10.57627248	     45.53847424	      0.79479631	     22.69355454	    -10.28048372	     -4.57804680	     22.74618567	    -13.66354644	     -3.47233512	    144.79898909	      2.52721911	     -8.23469977	    -12.71500969	     -3.23519037	    -28.92772311	      8.80763654	     11.07675312	     14.43498702	    -33.73698550	     18.76648831	     79.28836818	     90.00021046	    -10.45643683	    -11.39870032	      2.00304532	     29.93468335	     90.00021046
      0.39600000	      0.44290195	     -8.72540656	     -7.44765619	     -2.24559818	      0.98491137	      0.18663021	     15.16791916	     14.79847735	     -8.85388981	     46.27078351	      0.80757752	     23.74056431	    -10.32104097	     -7.03864842	     26.60386814	    -14.03357065	     -2.77435491	    145.11755269	      2.53277910	     -7.85149648	    -12.15119397	     -3.48241908	    -28.91653475	      7.78598604	     11.74674864	     19.04184446	    -33.29987193	     20.13830570	     79.70513487	     90.00021046	    -13.28455863	    -12.56389695	      2.23852108	     29.97156451	     90.00021046
